<?xml version="1.0" standalone="no"?>
<!DOCTYPE svg PUBLIC "-//W3C//DTD SVG 1.0//EN" "http://www.w3.org/TR/2001/REC-SVG-20010904/DTD/svg10.dtd">
<svg width="32" height="48" viewBox="0 0 32 48" fill="none" xmlns="http://www.w3.org/2000/svg" xmlns:inkscape ="http://www.inkscape.org/namespaces/inkscape" >
<desc>CopyRight:SVG Design Editor;
configurationStart;Unit=smInches;Dpi=96;Division=4;Grid=True;Zoom=1;CanvasW=1152;CanvasH=1152;configurationEnd;</desc>
<g inkscape:label = "logo Default Layer" inkscape:groupmode = "layer" ><path style="fill:#D8D8D8;stroke:none; stroke-width:1" d="m24.08,23.65c-0.04,0.28 -0.15,0.54 -0.32,0.77c-0.16,0.23 -0.38,0.42 -0.63,0.56c-0.51,0.32 -0.95,0.48 -1.4,0.64c-0.96,0.32 -1.97,0.64 -3.03,1.02c-1.12,0.37 -2.13,0.75 -3.03,1.02c-1.12,0.37 -2.19,0.69 -3.2,1.07c-0.76,0.32 -1.48,0.73 -2.13,1.23c-0.61,0.53 -1.13,1.14 -1.57,1.82c-0.45,0.75 -0.73,1.71 -0.73,2.83c0,2.24 0.56,3.95 1.69,5.02c1.12,1.12 3.2,1.66 6.29,1.66c3.14,0 5.28,-0.59 6.4,-1.76c1.12,-1.17 1.68,-2.83 1.68,-4.96l0,-10.9l0,0l0,0zm-8.09,-23.65c5.5,0 9.55,1.02 12.13,3.1c2.58,2.03 3.87,4.64 3.87,7.74l0,26.38c0,1.07 -0.22,2.24 -0.61,3.52c-0.4,1.29 -1.18,2.46 -2.42,3.52c-1.18,1.07 -2.81,1.98 -4.88,2.67c-2.08,0.69 -4.77,1.07 -8.09,1.07c-3.31,0 -6.01,-0.37 -8.08,-1.07c-2.07,-0.69 -3.71,-1.6 -4.88,-2.67c-1.1,-0.96 -1.93,-2.17 -2.41,-3.52c-0.4,-1.28 -0.62,-2.45 -0.62,-3.52l0,-4.22c0,-2.24 0.62,-4.33 1.85,-6.14c1.24,-1.87 2.97,-3.15 5.22,-3.95c1.12,-0.37 2.41,-0.75 3.87,-1.23c1.46,-0.48 2.81,-0.96 4.16,-1.39c1.35,-0.43 2.53,-0.86 3.54,-1.23c0.61,-0.24 1.23,-0.45 1.85,-0.64l1.01,-0.48c0.4,-0.21 0.79,-0.53 1.18,-0.96c0.39,-0.42 0.73,-0.91 1.01,-1.44c0.3,-0.58 0.45,-1.22 0.45,-1.87l0,-1.71c0,-0.63 -0.13,-1.25 -0.4,-1.82c-0.22,-0.64 -0.67,-1.23 -1.29,-1.76c-0.62,-0.53 -1.46,-0.96 -2.47,-1.29c-1.01,-0.32 -2.36,-0.48 -3.87,-0.48c-3.14,0 -5.22,0.59 -6.34,1.82c-0.95,1.07 -1.51,2.4 -1.63,3.9c0,0.32 -0.28,0.53 -0.62,0.53l-6.85,0.11c-0.16,0 -0.32,-0.06 -0.43,-0.17c-0.12,-0.11 -0.18,-0.26 -0.18,-0.42l0,-1.54c0,-1.5 0.28,-2.89 0.9,-4.22c0.62,-1.34 1.57,-2.46 2.86,-3.42c1.29,-0.96 2.98,-1.76 5,-2.29c1.97,-0.64 4.38,-0.91 7.19,-0.91l-0.01,0l0,0z" fill-rule = "evenodd" clip-rule = "evenodd" vector-effect="non-scaling-stroke" pen = "1,1" />
</g>
</svg>
